<svg width="24" height="24" viewBox="0 0 24 24" fill="none" xmlns="http://www.w3.org/2000/svg">
  <mask id="mask0_126_453" style="mask-type:alpha" maskUnits="userSpaceOnUse" x="0" y="0" width="24" height="24">
    <rect width="24" height="24" fill="#D9D9D9"/>
  </mask>
  <g mask="url(#mask0_126_453)">
    <path d="M2 2L22 22" stroke="#1C1B1F" stroke-width="2" stroke-linecap="round"/>
    <path d="M12 19C9.56667 19 7.35 18.3208 5.35 16.9625C3.35 15.6042 1.9 13.7833 1 11.5C1.9 9.21667 3.35 7.39583 5.35 6.0375C7.35 4.67917 9.56667 4 12 4C14.4333 4 16.65 4.67917 18.65 6.0375C20.65 7.39583 22.1 9.21667 23 11.5C22.1 13.7833 20.65 15.6042 18.65 16.9625C16.65 18.3208 14.4333 19 12 19Z" stroke="#1C1B1F" stroke-width="2"/>
    <path d="M7.5 11.5C7.5 12.75 7.9375 13.8125 8.8125 14.6875C9.6875 15.5625 10.75 16 12 16C13.25 16 14.3125 15.5625 15.1875 14.6875C16.0625 13.8125 16.5 12.75 16.5 11.5C16.5 10.25 16.0625 9.1875 15.1875 8.3125C14.3125 7.4375 13.25 7 12 7C10.75 7 9.6875 7.4375 8.8125 8.3125C7.9375 9.1875 7.5 10.25 7.5 11.5Z" stroke="#1C1B1F" stroke-width="2"/>
    <path d="M9 9L15 15" stroke="#1C1B1F" stroke-width="2" stroke-linecap="round"/>
  </g>
</svg>
